<?xml version="1.0" standalone="no"?>
<!DOCTYPE svg PUBLIC "-//W3C//DTD SVG 20010904//EN"
 "http://www.w3.org/TR/2001/REC-SVG-20010904/DTD/svg10.dtd">
<svg version="1.0" xmlns="http://www.w3.org/2000/svg"
 width="413.000000pt" height="419.000000pt" viewBox="0 0 413.000000 419.000000"
 preserveAspectRatio="xMidYMid meet">

<g transform="translate(0.000000,419.000000) scale(0.100000,-0.100000)"
fill="#000000" stroke="none">
<path d="M2395 3300 c3 -5 2 -15 -1 -24 -5 -13 -9 -14 -20 -5 -17 14 -94 20
-94 8 0 -4 -15 -12 -32 -18 -37 -13 -90 -50 -70 -51 6 0 12 -4 12 -9 0 -4 -28
-14 -62 -21 -35 -6 -72 -16 -83 -20 -42 -17 -89 -30 -112 -30 -13 0 -26 -7
-29 -15 -4 -8 -14 -15 -23 -16 -10 0 -7 -4 9 -11 24 -10 24 -10 5 -18 -11 -5
-16 -9 -11 -9 5 -1 3 -8 -4 -16 -7 -8 -9 -15 -4 -15 5 0 3 -4 -5 -9 -7 -5 -15
-30 -17 -56 -3 -40 -1 -45 11 -35 16 13 35 6 35 -13 0 -7 -9 -30 -19 -51 -11
-21 -23 -52 -26 -69 -6 -28 -2 -25 39 30 49 67 88 88 109 60 7 -10 26 -16 47
-15 19 0 103 -2 185 -5 156 -5 224 -17 245 -42 8 -9 27 -14 52 -13 45 2 55 -8
64 -65 6 -33 12 -40 55 -60 27 -12 49 -25 49 -29 0 -5 16 -8 35 -8 28 0 35 -4
35 -20 0 -15 9 -22 30 -26 17 -4 30 -11 30 -15 0 -5 11 -7 25 -3 21 5 25 3 25
-16 0 -12 -4 -18 -11 -15 -6 4 -17 -1 -24 -11 -20 -27 -18 -34 7 -31 17 1 24
-4 26 -20 2 -13 7 -23 12 -23 14 0 23 -79 11 -94 -7 -9 -7 -16 0 -23 8 -8 4
-17 -13 -33 -17 -17 -19 -21 -5 -17 9 4 17 2 17 -3 0 -6 8 -10 18 -10 10 0 23
-5 29 -11 8 -8 17 3 33 38 12 26 26 56 31 66 36 69 71 188 71 242 1 71 -42
204 -72 225 -4 3 -20 31 -35 63 -19 38 -34 57 -47 57 -10 0 -18 7 -18 15 0 8
-7 15 -15 15 -8 0 -31 17 -52 38 -20 20 -42 36 -48 34 -6 -1 -29 13 -51 31
-44 39 -163 108 -214 126 -19 6 -48 24 -65 40 -28 26 -82 50 -70 31z"/>
<path d="M1868 2636 c-6 -31 0 -39 36 -51 51 -17 44 -35 -15 -35 -29 0 -50 -3
-46 -6 3 -4 -1 -13 -9 -21 -18 -19 -13 -37 11 -42 18 -3 45 -24 45 -35 0 -3
-7 -3 -16 1 -12 4 -15 2 -12 -8 11 -34 95 -21 138 22 26 26 30 38 30 83 0 44
-5 58 -25 78 -24 25 -63 38 -110 38 -16 0 -24 -7 -27 -24z m90 -159 c2 -10 -3
-17 -12 -17 -18 0 -29 16 -21 31 9 14 29 6 33 -14z"/>
<path d="M2167 2600 c-9 -6 -21 -9 -26 -6 -4 3 -16 -3 -25 -13 -16 -17 -16
-22 -2 -54 8 -20 12 -38 9 -41 -4 -3 1 -14 9 -23 9 -10 19 -28 22 -39 10 -34
43 -57 86 -61 46 -5 52 8 13 27 -25 12 -26 14 -8 18 11 2 25 12 32 21 12 15
14 14 30 -6 22 -26 113 -44 113 -22 0 14 -13 24 -77 60 -19 11 -32 15 -28 9 9
-15 -2 -12 -19 6 -9 8 -16 11 -16 5 0 -6 -7 -8 -15 -5 -8 4 -13 10 -10 14 3 4
-5 10 -17 13 -36 10 -3 38 41 35 43 -4 55 23 19 46 -31 19 -109 29 -131 16z"/>
<path d="M2882 2410 c0 -14 2 -19 5 -12 2 6 2 18 0 25 -3 6 -5 1 -5 -13z"/>
<path d="M3436 2297 c-30 -39 -32 -59 -11 -77 12 -10 16 -9 21 4 4 11 19 16
50 16 29 0 44 4 44 13 -1 14 -30 56 -30 42 0 -5 -7 1 -16 13 -20 29 -28 28
-58 -11z"/>
<path d="M2140 2231 c0 -16 -7 -35 -16 -42 -13 -11 -23 -9 -62 13 -32 17 -69
27 -114 31 -63 6 -68 5 -68 -13 0 -11 5 -20 10 -20 6 0 10 -8 10 -18 0 -12
-17 -26 -52 -43 -64 -29 -83 -68 -51 -101 19 -19 22 -19 67 -4 76 26 113 21
212 -29 49 -24 92 -45 97 -45 12 0 28 51 22 69 -3 9 -22 25 -42 36 -40 22 -83
60 -83 75 0 6 11 10 24 10 13 0 29 7 36 15 7 8 18 15 26 15 8 0 11 10 9 28 -2
15 -4 33 -4 40 -2 26 -21 11 -21 -17z m-160 -95 c0 -8 10 -16 22 -18 13 -2 24
-11 26 -21 3 -16 1 -17 -17 -7 -12 6 -30 8 -40 5 -22 -7 -73 14 -65 26 3 5 16
9 30 9 13 0 24 5 24 10 0 6 5 10 10 10 6 0 10 -6 10 -14z"/>
<path d="M2860 2241 c-14 -11 -22 -22 -19 -26 8 -8 39 5 39 16 0 19 16 8 34
-22 13 -22 21 -28 29 -20 8 8 5 19 -10 38 -25 35 -41 38 -73 14z"/>
<path d="M2804 2176 c-7 -19 3 -36 21 -36 8 0 11 7 8 20 -7 27 -22 35 -29 16z"/>
<path d="M1580 2078 c0 -10 103 -16 120 -7 16 9 11 10 -77 13 -24 0 -43 -2
-43 -6z"/>
<path d="M2930 2039 c0 -5 5 -7 10 -4 6 3 10 8 10 11 0 2 -4 4 -10 4 -5 0 -10
-5 -10 -11z"/>
<path d="M1190 1990 c0 -22 2 -40 4 -40 2 0 6 18 8 40 2 22 0 40 -4 40 -5 0
-8 -18 -8 -40z"/>
<path d="M450 2010 c0 -5 5 -10 10 -10 6 0 10 -13 10 -29 0 -17 5 -33 10 -36
6 -4 10 10 10 33 0 27 -5 42 -16 46 -21 8 -24 8 -24 -4z"/>
<path d="M870 1983 c0 -12 5 -25 10 -28 13 -8 13 15 0 35 -8 12 -10 11 -10 -7z"/>
<path d="M1890 1985 c-18 -22 -4 -33 59 -50 49 -13 52 -12 66 8 15 21 14 23
-22 39 -48 21 -87 22 -103 3z"/>
<path d="M782 1963 c2 -17 10 -29 21 -31 25 -5 22 35 -4 48 -19 11 -20 9 -17
-17z"/>
<path d="M1680 1944 c-38 -44 -47 -64 -55 -126 -3 -26 -11 -50 -16 -54 -6 -3
-36 -8 -67 -9 -31 -2 -68 -6 -82 -8 -14 -3 -61 -11 -105 -17 -145 -21 -308
-62 -380 -95 -16 -8 -56 -21 -87 -30 -53 -14 -68 -26 -187 -143 -92 -90 -140
-147 -169 -197 -47 -82 -72 -107 -104 -105 -53 5 -57 -5 -26 -67 9 -19 6 -29
-16 -63 -14 -22 -34 -62 -44 -88 -17 -46 -18 -47 -65 -50 l-48 -3 2 68 c1 37
5 73 9 78 5 6 10 33 11 60 l3 50 -37 0 c-20 -1 -77 -2 -127 -3 l-90 -2 0 -49
0 -50 47 -3 48 -3 3 -68 c2 -42 -2 -74 -9 -83 -9 -11 -9 -14 0 -14 8 0 11 -11
9 -27 -3 -26 -7 -28 -50 -31 l-48 -3 0 -61 0 -61 86 6 c78 6 85 5 79 -11 -6
-14 -12 -54 -14 -108 -1 -5 -9 -19 -19 -30 -10 -10 -33 -46 -52 -79 -18 -33
-44 -74 -57 -91 -22 -29 -23 -39 -23 -202 l0 -172 323 0 324 0 36 78 c21 43
37 85 37 94 0 9 4 19 9 23 15 9 24 -61 17 -131 l-7 -64 1530 0 1529 0 7 68 c5
54 1 89 -19 177 -40 175 -96 451 -96 471 0 11 -9 48 -21 84 -54 166 -51 160
-157 280 -58 66 -62 74 -56 106 5 30 4 34 -14 34 -12 0 -23 -4 -26 -9 -8 -13
-108 26 -142 56 -16 14 -42 32 -59 40 -45 23 -105 73 -105 87 0 21 -64 75 -98
82 -32 6 -32 7 -32 70 0 34 -5 66 -10 69 -6 4 -22 24 -36 46 -13 22 -46 53
-73 69 -34 22 -50 38 -54 58 -6 28 -57 92 -74 92 -7 0 -41 -80 -59 -140 -10
-36 -46 -81 -71 -91 -17 -6 -31 -3 -57 15 -35 23 -35 23 -15 42 55 50 107 109
103 115 -6 10 -210 0 -254 -12 -19 -6 -57 -13 -85 -16 -27 -3 -52 -9 -55 -13
-11 -17 -174 -15 -227 4 -29 9 -62 15 -73 11 -12 -4 -27 -1 -35 5 -8 7 -33 10
-56 8 l-42 -4 -32 71 c-18 38 -35 78 -38 88 -9 25 -21 21 -57 -19z m1260 -474
c0 -5 -5 -10 -11 -10 -5 0 -7 5 -4 10 3 6 8 10 11 10 2 0 4 -4 4 -10z m-830
-94 c0 -8 -4 -18 -10 -21 -5 -3 -10 3 -10 14 0 12 5 21 10 21 6 0 10 -6 10
-14z m-9 -148 c1 -7 1 -18 0 -24 -1 -6 6 -30 14 -54 19 -53 19 -84 1 -99 -11
-9 -14 2 -19 58 -3 39 -10 78 -15 88 -10 20 -5 43 9 43 5 0 10 -6 10 -12z
m-1808 -375 c-7 -2 -21 -2 -30 0 -10 3 -4 5 12 5 17 0 24 -2 18 -5z m2343
-156 c8 3 14 0 14 -7 0 -7 7 -10 18 -6 11 4 9 -1 -7 -14 -16 -13 -28 -17 -34
-11 -5 5 -16 7 -25 3 -12 -4 -14 -1 -9 12 4 10 7 23 7 29 0 8 3 8 11 0 6 -6
18 -9 25 -6z m82 -31 c-10 -7 -15 -16 -11 -19 3 -4 -1 -7 -10 -7 -19 0 -20 2
-11 24 3 9 16 16 28 16 19 -1 20 -2 4 -14z m46 -21 c-9 -14 -20 -22 -25 -20
-9 6 20 45 33 45 5 0 1 -11 -8 -25z m56 -11 c0 -13 -4 -24 -10 -24 -5 0 -10 4
-10 10 0 5 -8 6 -17 3 -14 -6 -14 -3 3 19 22 30 34 27 34 -8z m65 16 c-3 -5
-10 -10 -16 -10 -5 0 -9 5 -9 10 0 6 7 10 16 10 8 0 12 -4 9 -10z m-29 -29
c-4 -5 0 -12 6 -14 8 -3 6 -6 -4 -6 -10 -1 -18 6 -18 14 0 8 5 15 11 15 5 0 8
-4 5 -9z"/>
<path d="M2675 1943 c-14 -86 -14 -84 4 -71 9 7 24 23 34 35 10 12 24 20 32
16 8 -3 15 0 15 6 0 6 -7 11 -15 11 -8 0 -24 9 -35 20 -11 11 -22 20 -25 20
-2 0 -7 -17 -10 -37z"/>
<path d="M300 1950 c0 -5 9 -10 21 -10 11 0 17 5 14 10 -3 6 -13 10 -21 10 -8
0 -14 -4 -14 -10z"/>
<path d="M2994 1772 c-6 -4 -13 -15 -17 -24 -5 -15 -1 -18 21 -17 15 0 21 3
15 6 -18 7 -16 23 2 23 8 0 15 5 15 10 0 12 -20 13 -36 2z"/>
<path d="M3145 1740 c-3 -5 1 -10 9 -10 9 0 16 5 16 10 0 6 -4 10 -9 10 -6 0
-13 -4 -16 -10z"/>
<path d="M3260 1740 c0 -5 5 -10 10 -10 6 0 10 5 10 10 0 6 -4 10 -10 10 -5 0
-10 -4 -10 -10z"/>
<path d="M4090 1705 c-7 -8 -19 -15 -26 -15 -19 0 -18 -26 2 -34 9 -3 27 -6
40 -6 21 0 24 5 24 35 0 38 -18 47 -40 20z"/>
<path d="M2970 1670 c0 -5 5 -10 11 -10 5 0 7 5 4 10 -3 6 -8 10 -11 10 -2 0
-4 -4 -4 -10z"/>
<path d="M4018 1613 c7 -3 16 -2 19 1 4 3 -2 6 -13 5 -11 0 -14 -3 -6 -6z"/>
<path d="M3828 1603 c12 -2 30 -2 40 0 9 3 -1 5 -23 4 -22 0 -30 -2 -17 -4z"/>
<path d="M3990 1490 c0 -5 7 -10 16 -10 8 0 12 5 9 10 -3 6 -10 10 -16 10 -5
0 -9 -4 -9 -10z"/>
<path d="M4070 1440 c0 -5 4 -10 9 -10 6 0 13 5 16 10 3 6 -1 10 -9 10 -9 0
-16 -4 -16 -10z"/>
<path d="M4111 1414 c0 -11 3 -14 6 -6 3 7 2 16 -1 19 -3 4 -6 -2 -5 -13z"/>
<path d="M3630 1309 c0 -23 4 -30 14 -26 8 3 16 3 19 0 12 -11 432 -11 440 1
5 8 10 7 17 -4 8 -12 10 -11 10 7 0 16 -8 25 -26 29 -26 7 -119 0 -162 -12
-18 -5 -21 -3 -16 10 4 10 1 16 -9 16 -8 0 -17 -7 -21 -15 -7 -20 -52 -19 -60
0 -4 12 -11 13 -23 7 -10 -5 -33 -7 -52 -4 -22 3 -32 1 -27 -6 7 -11 -21 -25
-35 -16 -5 3 -9 13 -9 22 0 12 -9 18 -30 20 -27 2 -30 0 -30 -29z"/>
<path d="M58 613 c7 -3 16 -2 19 1 4 3 -2 6 -13 5 -11 0 -14 -3 -6 -6z"/>
</g>
</svg>
